<mxfile host="Electron" agent="Generated by script.py" version="28.1.2">
  <diagram name="Page-1" id="AUTO-GEN">
    <mxGraphModel dx="1600" dy="1200" grid="1" gridSize="10" guides="1" tooltips="1" connect="1" arrows="1" fold="1" page="1" pageScale="1" pageWidth="850" pageHeight="1100" math="0" shadow="0">
      <root>
        <mxCell id="0" />
        <mxCell id="1" parent="0" />

    <mxCell id="file_align_kabsch_js_1" value="align/kabsch.js" style="shape=parallelogram;perimeter=parallelogramPerimeter;whiteSpace=wrap;html=1;fixedSize=1;" vertex="1" parent="1">
      <mxGeometry x="0" y="0" width="180" height="60" as="geometry" />
    </mxCell>
    
        <mxCell id="fn_align_kabsch_js_1" value="meanVec3()" style="shape=step;perimeter=stepPerimeter;whiteSpace=wrap;html=1;fixedSize=1;" vertex="1" parent="1">
          <mxGeometry x="220" y="0" width="180" height="40" as="geometry" />
        </mxCell>
        
        <mxCell id="fn_align_kabsch_js_2" value="covariance3x3()" style="shape=step;perimeter=stepPerimeter;whiteSpace=wrap;html=1;fixedSize=1;" vertex="1" parent="1">
          <mxGeometry x="220" y="66" width="180" height="40" as="geometry" />
        </mxCell>
        
        <mxCell id="fn_align_kabsch_js_3" value="nearestRotationPolar()" style="shape=step;perimeter=stepPerimeter;whiteSpace=wrap;html=1;fixedSize=1;" vertex="1" parent="1">
          <mxGeometry x="220" y="132" width="180" height="40" as="geometry" />
        </mxCell>
        
        <mxCell id="fn_align_kabsch_js_4" value="kabschRotation()" style="shape=step;perimeter=stepPerimeter;whiteSpace=wrap;html=1;fixedSize=1;" vertex="1" parent="1">
          <mxGeometry x="220" y="198" width="180" height="40" as="geometry" />
        </mxCell>
        
        <mxCell id="fn_align_kabsch_js_5" value="transpose()" style="shape=step;perimeter=stepPerimeter;whiteSpace=wrap;html=1;fixedSize=1;" vertex="1" parent="1">
          <mxGeometry x="220" y="264" width="180" height="40" as="geometry" />
        </mxCell>
        
        <mxCell id="fn_align_kabsch_js_6" value="invert3x3()" style="shape=step;perimeter=stepPerimeter;whiteSpace=wrap;html=1;fixedSize=1;" vertex="1" parent="1">
          <mxGeometry x="220" y="330" width="180" height="40" as="geometry" />
        </mxCell>
        
    <mxCell id="file_align_orient_js_1" value="align/orient.js" style="shape=parallelogram;perimeter=parallelogramPerimeter;whiteSpace=wrap;html=1;fixedSize=1;" vertex="1" parent="1">
      <mxGeometry x="280" y="0" width="180" height="60" as="geometry" />
    </mxCell>
    
        <mxCell id="fn_align_orient_js_1" value="composeQuaternion()" style="shape=step;perimeter=stepPerimeter;whiteSpace=wrap;html=1;fixedSize=1;" vertex="1" parent="1">
          <mxGeometry x="500" y="0" width="180" height="40" as="geometry" />
        </mxCell>
        
        <mxCell id="fn_align_orient_js_2" value="slerpQuat()" style="shape=step;perimeter=stepPerimeter;whiteSpace=wrap;html=1;fixedSize=1;" vertex="1" parent="1">
          <mxGeometry x="500" y="66" width="180" height="40" as="geometry" />
        </mxCell>
        
        <mxCell id="fn_align_orient_js_3" value="toEulerAngles()" style="shape=step;perimeter=stepPerimeter;whiteSpace=wrap;html=1;fixedSize=1;" vertex="1" parent="1">
          <mxGeometry x="500" y="132" width="180" height="40" as="geometry" />
        </mxCell>
        
    <mxCell id="file_config_js_1" value="config.js" style="shape=parallelogram;perimeter=parallelogramPerimeter;whiteSpace=wrap;html=1;fixedSize=1;" vertex="1" parent="1">
      <mxGeometry x="560" y="0" width="180" height="60" as="geometry" />
    </mxCell>
    
        <mxCell id="var_config_js_CONFIG_1" value="CONFIG:
object" style="rounded=0;whiteSpace=wrap;html=1;" vertex="1" parent="1">
          <mxGeometry x="560" y="100" width="180" height="40" as="geometry" />
        </mxCell>
        
    <mxCell id="file_data_api_js_1" value="data/api.js" style="shape=parallelogram;perimeter=parallelogramPerimeter;whiteSpace=wrap;html=1;fixedSize=1;" vertex="1" parent="1">
      <mxGeometry x="0" y="220" width="180" height="60" as="geometry" />
    </mxCell>
    
    <mxCell id="file_data_id_js_1" value="data/id.js" style="shape=parallelogram;perimeter=parallelogramPerimeter;whiteSpace=wrap;html=1;fixedSize=1;" vertex="1" parent="1">
      <mxGeometry x="280" y="220" width="180" height="60" as="geometry" />
    </mxCell>
    
        <mxCell id="var_data_id_js_getId_1" value="getId:
unknown" style="rounded=0;whiteSpace=wrap;html=1;" vertex="1" parent="1">
          <mxGeometry x="280" y="320" width="180" height="40" as="geometry" />
        </mxCell>
        
        <mxCell id="fn_data_id_js_1" value="getId()" style="shape=step;perimeter=stepPerimeter;whiteSpace=wrap;html=1;fixedSize=1;" vertex="1" parent="1">
          <mxGeometry x="500" y="220" width="180" height="40" as="geometry" />
        </mxCell>
        
    <mxCell id="file_debug_poseHUD_js_1" value="debug/poseHUD.js" style="shape=parallelogram;perimeter=parallelogramPerimeter;whiteSpace=wrap;html=1;fixedSize=1;" vertex="1" parent="1">
      <mxGeometry x="560" y="220" width="180" height="60" as="geometry" />
    </mxCell>
    
        <mxCell id="fn_debug_poseHUD_js_1" value="createPoseHUD()" style="shape=step;perimeter=stepPerimeter;whiteSpace=wrap;html=1;fixedSize=1;" vertex="1" parent="1">
          <mxGeometry x="780" y="220" width="180" height="40" as="geometry" />
        </mxCell>
        
        <mxCell id="fn_debug_poseHUD_js_2" value="update()" style="shape=step;perimeter=stepPerimeter;whiteSpace=wrap;html=1;fixedSize=1;" vertex="1" parent="1">
          <mxGeometry x="780" y="286" width="180" height="40" as="geometry" />
        </mxCell>
        
        <mxCell id="fn_debug_poseHUD_js_3" value="toggle()" style="shape=step;perimeter=stepPerimeter;whiteSpace=wrap;html=1;fixedSize=1;" vertex="1" parent="1">
          <mxGeometry x="780" y="352" width="180" height="40" as="geometry" />
        </mxCell>
        
        <mxCell id="fn_debug_poseHUD_js_4" value="fmt()" style="shape=step;perimeter=stepPerimeter;whiteSpace=wrap;html=1;fixedSize=1;" vertex="1" parent="1">
          <mxGeometry x="780" y="418" width="180" height="40" as="geometry" />
        </mxCell>
        
    <mxCell id="file_flow_transition_js_1" value="flow/transition.js" style="shape=parallelogram;perimeter=parallelogramPerimeter;whiteSpace=wrap;html=1;fixedSize=1;" vertex="1" parent="1">
      <mxGeometry x="0" y="440" width="180" height="60" as="geometry" />
    </mxCell>
    
        <mxCell id="var_flow_transition_js_ZERO_1" value="ZERO:
THREE.Vector3" style="rounded=0;whiteSpace=wrap;html=1;" vertex="1" parent="1">
          <mxGeometry x="0" y="540" width="180" height="40" as="geometry" />
        </mxCell>
        
        <mxCell id="var_flow_transition_js_easeInOutQuad_1" value="easeInOutQuad:
unknown" style="rounded=0;whiteSpace=wrap;html=1;" vertex="1" parent="1">
          <mxGeometry x="0" y="606" width="180" height="40" as="geometry" />
        </mxCell>
        
        <mxCell id="var_flow_transition_js_intersect_1" value="intersect:
unknown" style="rounded=0;whiteSpace=wrap;html=1;" vertex="1" parent="1">
          <mxGeometry x="0" y="672" width="180" height="40" as="geometry" />
        </mxCell>
        
        <mxCell id="var_flow_transition_js_subtract_1" value="subtract:
unknown" style="rounded=0;whiteSpace=wrap;html=1;" vertex="1" parent="1">
          <mxGeometry x="0" y="738" width="180" height="40" as="geometry" />
        </mxCell>
        
        <mxCell id="var_flow_transition_js_PendingTimers_1" value="PendingTimers:
Set" style="rounded=0;whiteSpace=wrap;html=1;" vertex="1" parent="1">
          <mxGeometry x="0" y="804" width="180" height="40" as="geometry" />
        </mxCell>
        
        <mxCell id="var_flow_transition_js_TransitionManager_1" value="TransitionManager:
unknown" style="rounded=0;whiteSpace=wrap;html=1;" vertex="1" parent="1">
          <mxGeometry x="0" y="870" width="180" height="40" as="geometry" />
        </mxCell>
        
        <mxCell id="fn_flow_transition_js_1" value="buildTargetMapFromDoc()" style="shape=step;perimeter=stepPerimeter;whiteSpace=wrap;html=1;fixedSize=1;" vertex="1" parent="1">
          <mxGeometry x="220" y="440" width="180" height="40" as="geometry" />
        </mxCell>
        
        <mxCell id="fn_flow_transition_js_2" value="delay()" style="shape=step;perimeter=stepPerimeter;whiteSpace=wrap;html=1;fixedSize=1;" vertex="1" parent="1">
          <mxGeometry x="220" y="506" width="180" height="40" as="geometry" />
        </mxCell>
        
        <mxCell id="fn_flow_transition_js_3" value="clearAllDelays()" style="shape=step;perimeter=stepPerimeter;whiteSpace=wrap;html=1;fixedSize=1;" vertex="1" parent="1">
          <mxGeometry x="220" y="572" width="180" height="40" as="geometry" />
        </mxCell>
        
        <mxCell id="fn_flow_transition_js_4" value="newToken()" style="shape=step;perimeter=stepPerimeter;whiteSpace=wrap;html=1;fixedSize=1;" vertex="1" parent="1">
          <mxGeometry x="220" y="638" width="180" height="40" as="geometry" />
        </mxCell>
        
        <mxCell id="fn_flow_transition_js_5" value="cancelAll()" style="shape=step;perimeter=stepPerimeter;whiteSpace=wrap;html=1;fixedSize=1;" vertex="1" parent="1">
          <mxGeometry x="220" y="704" width="180" height="40" as="geometry" />
        </mxCell>
        
        <mxCell id="fn_flow_transition_js_6" value="track()" style="shape=step;perimeter=stepPerimeter;whiteSpace=wrap;html=1;fixedSize=1;" vertex="1" parent="1">
          <mxGeometry x="220" y="770" width="180" height="40" as="geometry" />
        </mxCell>
        
        <mxCell id="fn_flow_transition_js_7" value="rafProgress()" style="shape=step;perimeter=stepPerimeter;whiteSpace=wrap;html=1;fixedSize=1;" vertex="1" parent="1">
          <mxGeometry x="220" y="836" width="180" height="40" as="geometry" />
        </mxCell>
        
        <mxCell id="fn_flow_transition_js_8" value="frame()" style="shape=step;perimeter=stepPerimeter;whiteSpace=wrap;html=1;fixedSize=1;" vertex="1" parent="1">
          <mxGeometry x="220" y="902" width="180" height="40" as="geometry" />
        </mxCell>
        
        <mxCell id="fn_flow_transition_js_9" value="tweenPosition()" style="shape=step;perimeter=stepPerimeter;whiteSpace=wrap;html=1;fixedSize=1;" vertex="1" parent="1">
          <mxGeometry x="220" y="968" width="180" height="40" as="geometry" />
        </mxCell>
        
        <mxCell id="fn_flow_transition_js_10" value="bakeGroupOffsetToChildren()" style="shape=step;perimeter=stepPerimeter;whiteSpace=wrap;html=1;fixedSize=1;" vertex="1" parent="1">
          <mxGeometry x="220" y="1034" width="180" height="40" as="geometry" />
        </mxCell>
        
        <mxCell id="fn_flow_transition_js_11" value="recenterAnimate()" style="shape=step;perimeter=stepPerimeter;whiteSpace=wrap;html=1;fixedSize=1;" vertex="1" parent="1">
          <mxGeometry x="220" y="1100" width="180" height="40" as="geometry" />
        </mxCell>
        
        <mxCell id="fn_flow_transition_js_12" value="followMovingAnchor()" style="shape=step;perimeter=stepPerimeter;whiteSpace=wrap;html=1;fixedSize=1;" vertex="1" parent="1">
          <mxGeometry x="220" y="1166" width="180" height="40" as="geometry" />
        </mxCell>
        
        <mxCell id="fn_flow_transition_js_13" value="easeInOutQuad()" style="shape=step;perimeter=stepPerimeter;whiteSpace=wrap;html=1;fixedSize=1;" vertex="1" parent="1">
          <mxGeometry x="220" y="1232" width="180" height="40" as="geometry" />
        </mxCell>
        
        <mxCell id="fn_flow_transition_js_14" value="intersect()" style="shape=step;perimeter=stepPerimeter;whiteSpace=wrap;html=1;fixedSize=1;" vertex="1" parent="1">
          <mxGeometry x="220" y="1298" width="180" height="40" as="geometry" />
        </mxCell>
        
        <mxCell id="fn_flow_transition_js_15" value="subtract()" style="shape=step;perimeter=stepPerimeter;whiteSpace=wrap;html=1;fixedSize=1;" vertex="1" parent="1">
          <mxGeometry x="220" y="1364" width="180" height="40" as="geometry" />
        </mxCell>
        
        <mxCell id="fn_flow_transition_js_16" value="TransitionManager()" style="shape=step;perimeter=stepPerimeter;whiteSpace=wrap;html=1;fixedSize=1;" vertex="1" parent="1">
          <mxGeometry x="220" y="1430" width="180" height="40" as="geometry" />
        </mxCell>
        
        <mxCell id="fn_flow_transition_js_17" value="cancel()" style="shape=step;perimeter=stepPerimeter;whiteSpace=wrap;html=1;fixedSize=1;" vertex="1" parent="1">
          <mxGeometry x="220" y="1496" width="180" height="40" as="geometry" />
        </mxCell>
        
        <mxCell id="fn_flow_transition_js_18" value="guard()" style="shape=step;perimeter=stepPerimeter;whiteSpace=wrap;html=1;fixedSize=1;" vertex="1" parent="1">
          <mxGeometry x="220" y="1562" width="180" height="40" as="geometry" />
        </mxCell>
        
        <mxCell id="fn_flow_transition_js_19" value="freshTasks()" style="shape=step;perimeter=stepPerimeter;whiteSpace=wrap;html=1;fixedSize=1;" vertex="1" parent="1">
          <mxGeometry x="220" y="1628" width="180" height="40" as="geometry" />
        </mxCell>
        
    <mxCell id="file_graph_anchors_js_1" value="graph/anchors.js" style="shape=parallelogram;perimeter=parallelogramPerimeter;whiteSpace=wrap;html=1;fixedSize=1;" vertex="1" parent="1">
      <mxGeometry x="280" y="440" width="180" height="60" as="geometry" />
    </mxCell>
    
        <mxCell id="fn_graph_anchors_js_1" value="makeAnchorAt()" style="shape=step;perimeter=stepPerimeter;whiteSpace=wrap;html=1;fixedSize=1;" vertex="1" parent="1">
          <mxGeometry x="500" y="440" width="180" height="40" as="geometry" />
        </mxCell>
        
    <mxCell id="file_graph_geometry_js_1" value="graph/geometry.js" style="shape=parallelogram;perimeter=parallelogramPerimeter;whiteSpace=wrap;html=1;fixedSize=1;" vertex="1" parent="1">
      <mxGeometry x="560" y="440" width="180" height="60" as="geometry" />
    </mxCell>
    
        <mxCell id="fn_graph_geometry_js_1" value="buildGraph()" style="shape=step;perimeter=stepPerimeter;whiteSpace=wrap;html=1;fixedSize=1;" vertex="1" parent="1">
          <mxGeometry x="780" y="440" width="180" height="40" as="geometry" />
        </mxCell>
        
    <mxCell id="file_graph_sets_js_1" value="graph/sets.js" style="shape=parallelogram;perimeter=parallelogramPerimeter;whiteSpace=wrap;html=1;fixedSize=1;" vertex="1" parent="1">
      <mxGeometry x="0" y="660" width="180" height="60" as="geometry" />
    </mxCell>
    
        <mxCell id="fn_graph_sets_js_1" value="intersect()" style="shape=step;perimeter=stepPerimeter;whiteSpace=wrap;html=1;fixedSize=1;" vertex="1" parent="1">
          <mxGeometry x="220" y="660" width="180" height="40" as="geometry" />
        </mxCell>
        
        <mxCell id="fn_graph_sets_js_2" value="subtract()" style="shape=step;perimeter=stepPerimeter;whiteSpace=wrap;html=1;fixedSize=1;" vertex="1" parent="1">
          <mxGeometry x="220" y="726" width="180" height="40" as="geometry" />
        </mxCell>
        
    <mxCell id="file_graph_sprites_js_1" value="graph/sprites.js" style="shape=parallelogram;perimeter=parallelogramPerimeter;whiteSpace=wrap;html=1;fixedSize=1;" vertex="1" parent="1">
      <mxGeometry x="280" y="660" width="180" height="60" as="geometry" />
    </mxCell>
    
        <mxCell id="fn_graph_sprites_js_1" value="createTextSprite()" style="shape=step;perimeter=stepPerimeter;whiteSpace=wrap;html=1;fixedSize=1;" vertex="1" parent="1">
          <mxGeometry x="500" y="660" width="180" height="40" as="geometry" />
        </mxCell>
        
    <mxCell id="file_graph_state_js_1" value="graph/state.js" style="shape=parallelogram;perimeter=parallelogramPerimeter;whiteSpace=wrap;html=1;fixedSize=1;" vertex="1" parent="1">
      <mxGeometry x="560" y="660" width="180" height="60" as="geometry" />
    </mxCell>
    
        <mxCell id="var_graph_state_js_byId_1" value="byId:
Map" style="rounded=0;whiteSpace=wrap;html=1;" vertex="1" parent="1">
          <mxGeometry x="560" y="760" width="180" height="40" as="geometry" />
        </mxCell>
        
        <mxCell id="var_graph_state_js_nodeObjects_1" value="nodeObjects:
array" style="rounded=0;whiteSpace=wrap;html=1;" vertex="1" parent="1">
          <mxGeometry x="560" y="826" width="180" height="40" as="geometry" />
        </mxCell>
        
        <mxCell id="var_graph_state_js_centeredNode_1" value="centeredNode:
null" style="rounded=0;whiteSpace=wrap;html=1;" vertex="1" parent="1">
          <mxGeometry x="560" y="892" width="180" height="40" as="geometry" />
        </mxCell>
        
        <mxCell id="var_graph_state_js_nodeById_1" value="nodeById:
unknown" style="rounded=0;whiteSpace=wrap;html=1;" vertex="1" parent="1">
          <mxGeometry x="560" y="958" width="180" height="40" as="geometry" />
        </mxCell>
        
        <mxCell id="var_graph_state_js_getCentered_1" value="getCentered:
unknown" style="rounded=0;whiteSpace=wrap;html=1;" vertex="1" parent="1">
          <mxGeometry x="560" y="1024" width="180" height="40" as="geometry" />
        </mxCell>
        
        <mxCell id="var_graph_state_js_setCentered_1" value="setCentered:
unknown" style="rounded=0;whiteSpace=wrap;html=1;" vertex="1" parent="1">
          <mxGeometry x="560" y="1090" width="180" height="40" as="geometry" />
        </mxCell>
        
        <mxCell id="fn_graph_state_js_1" value="registerNode()" style="shape=step;perimeter=stepPerimeter;whiteSpace=wrap;html=1;fixedSize=1;" vertex="1" parent="1">
          <mxGeometry x="780" y="660" width="180" height="40" as="geometry" />
        </mxCell>
        
        <mxCell id="fn_graph_state_js_2" value="removeNode()" style="shape=step;perimeter=stepPerimeter;whiteSpace=wrap;html=1;fixedSize=1;" vertex="1" parent="1">
          <mxGeometry x="780" y="726" width="180" height="40" as="geometry" />
        </mxCell>
        
        <mxCell id="fn_graph_state_js_3" value="clearNodeGroup()" style="shape=step;perimeter=stepPerimeter;whiteSpace=wrap;html=1;fixedSize=1;" vertex="1" parent="1">
          <mxGeometry x="780" y="792" width="180" height="40" as="geometry" />
        </mxCell>
        
        <mxCell id="fn_graph_state_js_4" value="currentSynIdsFromScene()" style="shape=step;perimeter=stepPerimeter;whiteSpace=wrap;html=1;fixedSize=1;" vertex="1" parent="1">
          <mxGeometry x="780" y="858" width="180" height="40" as="geometry" />
        </mxCell>
        
        <mxCell id="fn_graph_state_js_5" value="nodeById()" style="shape=step;perimeter=stepPerimeter;whiteSpace=wrap;html=1;fixedSize=1;" vertex="1" parent="1">
          <mxGeometry x="780" y="924" width="180" height="40" as="geometry" />
        </mxCell>
        
        <mxCell id="fn_graph_state_js_6" value="getCentered()" style="shape=step;perimeter=stepPerimeter;whiteSpace=wrap;html=1;fixedSize=1;" vertex="1" parent="1">
          <mxGeometry x="780" y="990" width="180" height="40" as="geometry" />
        </mxCell>
        
        <mxCell id="fn_graph_state_js_7" value="setCentered()" style="shape=step;perimeter=stepPerimeter;whiteSpace=wrap;html=1;fixedSize=1;" vertex="1" parent="1">
          <mxGeometry x="780" y="1056" width="180" height="40" as="geometry" />
        </mxCell>
        
    <mxCell id="file_main_js_1" value="main.js" style="shape=parallelogram;perimeter=parallelogramPerimeter;whiteSpace=wrap;html=1;fixedSize=1;" vertex="1" parent="1">
      <mxGeometry x="0" y="880" width="180" height="60" as="geometry" />
    </mxCell>
    
        <mxCell id="var_main_js_axesHelper_1" value="axesHelper:
THREE.AxesHelper" style="rounded=0;whiteSpace=wrap;html=1;" vertex="1" parent="1">
          <mxGeometry x="0" y="980" width="180" height="40" as="geometry" />
        </mxCell>
        
        <mxCell id="var_main_js_controls_1" value="controls:
installControls" style="rounded=0;whiteSpace=wrap;html=1;" vertex="1" parent="1">
          <mxGeometry x="0" y="1046" width="180" height="40" as="geometry" />
        </mxCell>
        
        <mxCell id="var_main_js_hud_1" value="hud:
createPoseHUD" style="rounded=0;whiteSpace=wrap;html=1;" vertex="1" parent="1">
          <mxGeometry x="0" y="1112" width="180" height="40" as="geometry" />
        </mxCell>
        
        <mxCell id="fn_main_js_1" value="animate()" style="shape=step;perimeter=stepPerimeter;whiteSpace=wrap;html=1;fixedSize=1;" vertex="1" parent="1">
          <mxGeometry x="220" y="880" width="180" height="40" as="geometry" />
        </mxCell>
        
    <mxCell id="file_scene_control_js_1" value="scene/control.js" style="shape=parallelogram;perimeter=parallelogramPerimeter;whiteSpace=wrap;html=1;fixedSize=1;" vertex="1" parent="1">
      <mxGeometry x="280" y="880" width="180" height="60" as="geometry" />
    </mxCell>
    
        <mxCell id="fn_scene_control_js_1" value="installControls()" style="shape=step;perimeter=stepPerimeter;whiteSpace=wrap;html=1;fixedSize=1;" vertex="1" parent="1">
          <mxGeometry x="500" y="880" width="180" height="40" as="geometry" />
        </mxCell>
        
        <mxCell id="fn_scene_control_js_2" value="onMouseMove()" style="shape=step;perimeter=stepPerimeter;whiteSpace=wrap;html=1;fixedSize=1;" vertex="1" parent="1">
          <mxGeometry x="500" y="946" width="180" height="40" as="geometry" />
        </mxCell>
        
        <mxCell id="fn_scene_control_js_3" value="onMouseDown()" style="shape=step;perimeter=stepPerimeter;whiteSpace=wrap;html=1;fixedSize=1;" vertex="1" parent="1">
          <mxGeometry x="500" y="1012" width="180" height="40" as="geometry" />
        </mxCell>
        
        <mxCell id="fn_scene_control_js_4" value="onMouseUp()" style="shape=step;perimeter=stepPerimeter;whiteSpace=wrap;html=1;fixedSize=1;" vertex="1" parent="1">
          <mxGeometry x="500" y="1078" width="180" height="40" as="geometry" />
        </mxCell>
        
        <mxCell id="fn_scene_control_js_5" value="tick()" style="shape=step;perimeter=stepPerimeter;whiteSpace=wrap;html=1;fixedSize=1;" vertex="1" parent="1">
          <mxGeometry x="500" y="1144" width="180" height="40" as="geometry" />
        </mxCell>
        
    <mxCell id="file_scene_scene_js_1" value="scene/scene.js" style="shape=parallelogram;perimeter=parallelogramPerimeter;whiteSpace=wrap;html=1;fixedSize=1;" vertex="1" parent="1">
      <mxGeometry x="560" y="880" width="180" height="60" as="geometry" />
    </mxCell>
    
        <mxCell id="var_scene_scene_js_WIDTH_1" value="WIDTH:
window.innerWidth" style="rounded=0;whiteSpace=wrap;html=1;" vertex="1" parent="1">
          <mxGeometry x="560" y="980" width="180" height="40" as="geometry" />
        </mxCell>
        
        <mxCell id="var_scene_scene_js_HEIGHT_1" value="HEIGHT:
window.innerHeight" style="rounded=0;whiteSpace=wrap;html=1;" vertex="1" parent="1">
          <mxGeometry x="560" y="1046" width="180" height="40" as="geometry" />
        </mxCell>
        
        <mxCell id="var_scene_scene_js_DEVICE_PIXEL_RATIO_1" value="DEVICE_PIXEL_RATIO:
window.devicePixelRatio" style="rounded=0;whiteSpace=wrap;html=1;" vertex="1" parent="1">
          <mxGeometry x="560" y="1112" width="180" height="40" as="geometry" />
        </mxCell>
        
        <mxCell id="var_scene_scene_js_scene_1" value="scene:
THREE.Scene" style="rounded=0;whiteSpace=wrap;html=1;" vertex="1" parent="1">
          <mxGeometry x="560" y="1178" width="180" height="40" as="geometry" />
        </mxCell>
        
        <mxCell id="var_scene_scene_js_camera_1" value="camera:
THREE.PerspectiveCamera" style="rounded=0;whiteSpace=wrap;html=1;" vertex="1" parent="1">
          <mxGeometry x="560" y="1244" width="180" height="40" as="geometry" />
        </mxCell>
        
        <mxCell id="var_scene_scene_js_renderer_1" value="renderer:
THREE.WebGLRenderer" style="rounded=0;whiteSpace=wrap;html=1;" vertex="1" parent="1">
          <mxGeometry x="560" y="1310" width="180" height="40" as="geometry" />
        </mxCell>
        
        <mxCell id="var_scene_scene_js_raycaster_1" value="raycaster:
THREE.Raycaster" style="rounded=0;whiteSpace=wrap;html=1;" vertex="1" parent="1">
          <mxGeometry x="560" y="1376" width="180" height="40" as="geometry" />
        </mxCell>
        
        <mxCell id="var_scene_scene_js_mouse_1" value="mouse:
THREE.Vector2" style="rounded=0;whiteSpace=wrap;html=1;" vertex="1" parent="1">
          <mxGeometry x="560" y="1442" width="180" height="40" as="geometry" />
        </mxCell>
        
        <mxCell id="var_scene_scene_js_nodeGroup_1" value="nodeGroup:
THREE.Group" style="rounded=0;whiteSpace=wrap;html=1;" vertex="1" parent="1">
          <mxGeometry x="560" y="1508" width="180" height="40" as="geometry" />
        </mxCell>
        
        <mxCell id="var_scene_scene_js_debugEl_1" value="debugEl:
document.getElementById" style="rounded=0;whiteSpace=wrap;html=1;" vertex="1" parent="1">
          <mxGeometry x="560" y="1574" width="180" height="40" as="geometry" />
        </mxCell>
        
        <mxCell id="fn_scene_scene_js_1" value="attachResize()" style="shape=step;perimeter=stepPerimeter;whiteSpace=wrap;html=1;fixedSize=1;" vertex="1" parent="1">
          <mxGeometry x="780" y="880" width="180" height="40" as="geometry" />
        </mxCell>
        
    <mxCell id="file_setup_js_1" value="setup.js" style="shape=parallelogram;perimeter=parallelogramPerimeter;whiteSpace=wrap;html=1;fixedSize=1;" vertex="1" parent="1">
      <mxGeometry x="0" y="1100" width="180" height="60" as="geometry" />
    </mxCell>
    
    <mxCell id="edge_1" style="curved=1;endArrow=classic;html=1;rounded=0;" edge="1" parent="1" source="file_data_api_js_1" target="file_config_js_1">
      <mxGeometry width="50" height="50" relative="1" as="geometry">
        
      </mxGeometry>
    </mxCell>
    
    <mxCell id="edge_2" style="curved=1;endArrow=classic;html=1;rounded=0;" edge="1" parent="1" source="file_flow_transition_js_1" target="file_config_js_1">
      <mxGeometry width="50" height="50" relative="1" as="geometry">
        
      </mxGeometry>
    </mxCell>
    
    <mxCell id="edge_3" style="curved=1;endArrow=classic;html=1;rounded=0;" edge="1" parent="1" source="file_flow_transition_js_1" target="file_scene_scene_js_1">
      <mxGeometry width="50" height="50" relative="1" as="geometry">
        
      </mxGeometry>
    </mxCell>
    
    <mxCell id="edge_4" style="curved=1;endArrow=classic;html=1;rounded=0;" edge="1" parent="1" source="file_flow_transition_js_1" target="file_data_api_js_1">
      <mxGeometry width="50" height="50" relative="1" as="geometry">
        
      </mxGeometry>
    </mxCell>
    
    <mxCell id="edge_5" style="curved=1;endArrow=classic;html=1;rounded=0;" edge="1" parent="1" source="file_flow_transition_js_1" target="file_data_id_js_1">
      <mxGeometry width="50" height="50" relative="1" as="geometry">
        
      </mxGeometry>
    </mxCell>
    
    <mxCell id="edge_6" style="curved=1;endArrow=classic;html=1;rounded=0;" edge="1" parent="1" source="file_flow_transition_js_1" target="file_graph_state_js_1">
      <mxGeometry width="50" height="50" relative="1" as="geometry">
        
      </mxGeometry>
    </mxCell>
    
    <mxCell id="edge_7" style="curved=1;endArrow=classic;html=1;rounded=0;" edge="1" parent="1" source="file_flow_transition_js_1" target="file_graph_anchors_js_1">
      <mxGeometry width="50" height="50" relative="1" as="geometry">
        
      </mxGeometry>
    </mxCell>
    
    <mxCell id="edge_8" style="curved=1;endArrow=classic;html=1;rounded=0;" edge="1" parent="1" source="file_flow_transition_js_1" target="file_graph_sprites_js_1">
      <mxGeometry width="50" height="50" relative="1" as="geometry">
        
      </mxGeometry>
    </mxCell>
    
    <mxCell id="edge_9" style="curved=1;endArrow=classic;html=1;rounded=0;" edge="1" parent="1" source="file_graph_anchors_js_1" target="file_scene_scene_js_1">
      <mxGeometry width="50" height="50" relative="1" as="geometry">
        
      </mxGeometry>
    </mxCell>
    
    <mxCell id="edge_10" style="curved=1;endArrow=classic;html=1;rounded=0;" edge="1" parent="1" source="file_graph_geometry_js_1" target="file_scene_scene_js_1">
      <mxGeometry width="50" height="50" relative="1" as="geometry">
        
      </mxGeometry>
    </mxCell>
    
    <mxCell id="edge_11" style="curved=1;endArrow=classic;html=1;rounded=0;" edge="1" parent="1" source="file_graph_geometry_js_1" target="file_graph_sprites_js_1">
      <mxGeometry width="50" height="50" relative="1" as="geometry">
        
      </mxGeometry>
    </mxCell>
    
    <mxCell id="edge_12" style="curved=1;endArrow=classic;html=1;rounded=0;" edge="1" parent="1" source="file_graph_geometry_js_1" target="file_data_id_js_1">
      <mxGeometry width="50" height="50" relative="1" as="geometry">
        
      </mxGeometry>
    </mxCell>
    
    <mxCell id="edge_13" style="curved=1;endArrow=classic;html=1;rounded=0;" edge="1" parent="1" source="file_graph_geometry_js_1" target="file_graph_state_js_1">
      <mxGeometry width="50" height="50" relative="1" as="geometry">
        
      </mxGeometry>
    </mxCell>
    
    <mxCell id="edge_14" style="curved=1;endArrow=classic;html=1;rounded=0;" edge="1" parent="1" source="file_graph_sprites_js_1" target="file_config_js_1">
      <mxGeometry width="50" height="50" relative="1" as="geometry">
        
      </mxGeometry>
    </mxCell>
    
    <mxCell id="edge_15" style="curved=1;endArrow=classic;html=1;rounded=0;" edge="1" parent="1" source="file_graph_state_js_1" target="file_scene_scene_js_1">
      <mxGeometry width="50" height="50" relative="1" as="geometry">
        
      </mxGeometry>
    </mxCell>
    
    <mxCell id="edge_16" style="curved=1;endArrow=classic;html=1;rounded=0;" edge="1" parent="1" source="file_main_js_1" target="file_config_js_1">
      <mxGeometry width="50" height="50" relative="1" as="geometry">
        
      </mxGeometry>
    </mxCell>
    
    <mxCell id="edge_17" style="curved=1;endArrow=classic;html=1;rounded=0;" edge="1" parent="1" source="file_main_js_1" target="file_scene_scene_js_1">
      <mxGeometry width="50" height="50" relative="1" as="geometry">
        
      </mxGeometry>
    </mxCell>
    
    <mxCell id="edge_18" style="curved=1;endArrow=classic;html=1;rounded=0;" edge="1" parent="1" source="file_main_js_1" target="file_scene_control_js_1">
      <mxGeometry width="50" height="50" relative="1" as="geometry">
        
      </mxGeometry>
    </mxCell>
    
    <mxCell id="edge_19" style="curved=1;endArrow=classic;html=1;rounded=0;" edge="1" parent="1" source="file_main_js_1" target="file_graph_state_js_1">
      <mxGeometry width="50" height="50" relative="1" as="geometry">
        
      </mxGeometry>
    </mxCell>
    
    <mxCell id="edge_20" style="curved=1;endArrow=classic;html=1;rounded=0;" edge="1" parent="1" source="file_main_js_1" target="file_setup_js_1">
      <mxGeometry width="50" height="50" relative="1" as="geometry">
        
      </mxGeometry>
    </mxCell>
    
    <mxCell id="edge_21" style="curved=1;endArrow=classic;html=1;rounded=0;" edge="1" parent="1" source="file_main_js_1" target="file_flow_transition_js_1">
      <mxGeometry width="50" height="50" relative="1" as="geometry">
        
      </mxGeometry>
    </mxCell>
    
    <mxCell id="edge_22" style="curved=1;endArrow=classic;html=1;rounded=0;" edge="1" parent="1" source="file_main_js_1" target="file_debug_poseHUD_js_1">
      <mxGeometry width="50" height="50" relative="1" as="geometry">
        
      </mxGeometry>
    </mxCell>
    
    <mxCell id="edge_23" style="curved=1;endArrow=classic;html=1;rounded=0;" edge="1" parent="1" source="file_scene_control_js_1" target="file_config_js_1">
      <mxGeometry width="50" height="50" relative="1" as="geometry">
        
      </mxGeometry>
    </mxCell>
    
    <mxCell id="edge_24" style="curved=1;endArrow=classic;html=1;rounded=0;" edge="1" parent="1" source="file_scene_scene_js_1" target="file_config_js_1">
      <mxGeometry width="50" height="50" relative="1" as="geometry">
        
      </mxGeometry>
    </mxCell>
    
    <mxCell id="edge_25" style="curved=1;endArrow=classic;html=1;rounded=0;" edge="1" parent="1" source="file_setup_js_1" target="file_config_js_1">
      <mxGeometry width="50" height="50" relative="1" as="geometry">
        
      </mxGeometry>
    </mxCell>
    
    <mxCell id="edge_26" style="curved=1;endArrow=classic;html=1;rounded=0;" edge="1" parent="1" source="file_setup_js_1" target="file_data_api_js_1">
      <mxGeometry width="50" height="50" relative="1" as="geometry">
        
      </mxGeometry>
    </mxCell>
    
    <mxCell id="edge_27" style="curved=1;endArrow=classic;html=1;rounded=0;" edge="1" parent="1" source="file_setup_js_1" target="file_graph_geometry_js_1">
      <mxGeometry width="50" height="50" relative="1" as="geometry">
        
      </mxGeometry>
    </mxCell>
    
      </root>
    </mxGraphModel>
  </diagram>
</mxfile>
